<?xml version="1.0" encoding="UTF-8" standalone="no"?><!DOCTYPE svg PUBLIC "-//W3C//DTD SVG 1.1//EN" "http://www.w3.org/Graphics/SVG/1.1/DTD/svg11.dtd"><svg width="100%" height="100%" viewBox="0 0 313 209" version="1.1" xmlns="http://www.w3.org/2000/svg" xmlns:xlink="http://www.w3.org/1999/xlink" xml:space="preserve" xmlns:serif="http://www.serif.com/" style="fill-rule:evenodd;clip-rule:evenodd;stroke-linejoin:round;stroke-miterlimit:2;"><rect id="WebLogo" x="0" y="-0" width="312.5" height="208.333" style="fill:none;"/><path d="M232.863,167.23c3.745,-10.984 14.23,-30.208 14.23,-30.208c0,2.747 1.498,3.745 1.498,3.745c-0,0 -0.499,-4.244 1.748,-9.487c2.496,-5.242 11.733,-4.993 11.733,-4.993c-1.248,2.746 -5.492,5.243 -5.492,5.243c16.227,-2.996 18.724,-13.731 18.724,-13.731c-0,4.244 -0.999,5.743 -0.999,5.743c14.979,-10.486 24.466,-41.442 20.721,-59.417c2.246,2.746 4.993,2.496 4.993,2.496c-3.246,-4.993 -5.991,-11.483 -5.991,-11.483c-10.735,-25.715 -27.962,-31.206 -27.962,-31.206c4.744,1.746 7.49,-0 7.49,-0c-19.723,-7.74 -36.698,-21.72 -79.888,-16.728c-43.189,4.994 -62.412,31.956 -72.398,41.443c-10.236,9.486 -17.974,0.998 -17.974,0.998c2.496,-0.749 3.744,-3.495 3.744,-3.495c0,0 -0.998,1.747 -10.984,2.247c-9.737,0.499 -18.724,5.243 -18.724,5.243c0.249,-1.249 -0.25,-2.497 -0.25,-2.497c-1.498,3.995 -8.238,7.989 -16.227,17.226c-8.238,9.237 -8.238,19.972 -8.238,19.972c-0.499,-1.748 -1.249,-2.247 -1.249,-2.247c0.5,4.494 0,8.738 0,8.738c-0.749,-2.496 -2.995,-3.995 -2.995,-3.995c0,-0 3.495,5.743 0.499,10.236c-2.746,4.743 -3.495,7.489 -3.495,7.489c-39.195,35.95 -32.454,46.685 -32.454,46.685c-0,0 26.463,-31.705 39.195,-39.944c-0,-0 7.989,-3.495 12.981,-9.986c10.236,-0.749 8.987,-2.746 19.223,-1.249c0,0 -0.749,-1.997 -2.247,-1.997c27.961,6.741 51.178,8.988 55.921,16.227c0,0 1.249,-2.995 -0.499,-4.743c17.226,-0.499 51.927,2.497 55.672,26.962c2.496,16.228 -3.246,19.223 -3.246,19.223c0,0 2.997,-0.499 4.245,-1.997c-0,0 -14.48,14.48 -25.215,19.972c0,-0 -3.495,-1.997 -6.491,-1.248c0,0 -1.748,-1.248 -3.494,1.498c-0,0 1.247,-0.499 1.746,0.499c0,0 -0.499,1.498 0.75,2.747c1.248,1.247 3.245,0.748 3.245,0.748c0,0 -5.242,2.247 -9.486,2.746c-4.244,0.5 -6.241,3.994 -6.241,3.994c-0,0 -2.997,-0.249 -3.496,4.494c-0,0 1.498,-2.746 3.995,-2.247c-0,0 1.498,3.246 5.492,1.498c4.244,-1.997 8.488,-3.495 8.488,-3.495c-0,0 -5.492,3.246 -8.988,5.493c-0.249,0.249 -1.747,0.999 -1.997,3.245c0,-0 -1.997,0.999 -2.247,4.494c0,-0 2.247,-2.496 3.995,-2.747c0,0 4.244,1.997 8.238,-1.997c3.995,-3.994 6.991,-7.489 16.726,-7.738c2.247,-0.25 5.493,-0.5 8.239,-0.25c0,-0 1.249,0.25 2.247,-0.5c0,0 0.999,-0.25 1.997,1.249c0,-0 0.249,-1.748 -1.497,-2.746c-0,-0 -0,-1.498 -1.748,-1.748c-1.997,-0.249 -5.243,0.998 -7.24,-0.499c0,-0 15.728,-14.73 28.21,-21.47c-0,0 1.499,-0.749 1.998,-1.998c-0,0 0.249,0.75 -0.749,2.997c-0,-0 7.239,-2.498 10.984,-15.479c-0,0 0.749,1.248 0.499,3.246c0,-0 2.247,-1.249 2.997,-4.994c-0,0 4.244,0.25 2.246,5.992c-1.997,5.493 -10.485,19.972 -10.485,19.972c-0,-0 -3.246,-0.748 -4.744,0.499c0,0 -2.247,-0.249 -2.746,2.247c-0,0 0.749,-0.499 1.748,0c-0,0 -0,1.249 1.248,2.247c0,0 -2.247,1.747 -5.992,2.747c-3.744,1.247 -4.493,3.494 -4.493,3.494c0,0 -1.748,0 -1.498,2.247c-0,0 0.749,-1.248 2.247,-1.248c-0,-0 0.998,1.748 3.744,1.248c2.747,-0.499 6.241,-3.495 9.487,-4.244c0,0 -0.998,2.996 -2.995,5.492c-1.748,2.497 -0.75,3.246 -0.75,3.246c0,-0 -0.748,1.248 0,3.495c0,0 0.499,-1.998 1.748,-2.746c0,-0 2.247,1.747 4.244,-1.498c1.748,-3.245 1.748,-9.987 9.487,-8.488c-0,0 4.743,4.493 8.488,2.246c-0,0 0.998,0.25 1.498,1.748c-0,0 0.499,-1.498 -0.25,-3.246c0.25,-4.493 -7.24,-6.49 -7.24,-8.488c0.25,-1.997 2.746,-7.239 2.746,-7.239" style="fill:none;stroke:#00deff;stroke-width:1.03px;"/></svg>